<svg xmlns="http://www.w3.org/2000/svg" viewBox="0 0 342.85155851775386 342.85155851775386" height="342.85155851775386" width="342.85155851775386">
    <g><svg></svg></g>
    <g><svg viewBox="0 0 342.85155851775386 342.85155851775386" height="342.85155851775386" width="342.85155851775386">
            <g>
                <path
                    d="M0 171.426c0-94.676 76.75-171.426 171.426-171.426 94.676 0 171.426 76.75 171.426 171.426 0 94.676-76.75 171.426-171.426 171.426-94.676 0-171.426-76.75-171.426-171.426zM171.426 340.569c93.415 0 169.143-75.728 169.143-169.143 0-93.415-75.728-169.143-169.143-169.144-93.415 0-169.143 75.728-169.144 169.144 0 93.415 75.728 169.143 169.144 169.143z"
                    data-fill-palette-color="tertiary" fill="#7a26c1" stroke="transparent"></path>
                <ellipse rx="164.56874808852186" ry="164.56874808852186" cx="171.42577925887693" cy="171.42577925887693"
                    fill="#7a26c1" stroke="transparent" stroke-width="0" fill-opacity="1"
                    data-fill-palette-color="tertiary"></ellipse>
            </g>
            <g transform="matrix(1,0,0,1,64.84655864529837,153.93783589310945)"><svg
                    viewBox="0 0 213.1584412271571 34.975886731534956" height="34.975886731534956"
                    width="213.1584412271571">
                    <g><svg viewBox="0 0 213.1584412271571 34.975886731534956" height="34.975886731534956"
                            width="213.1584412271571">
                            <g><svg viewBox="0 0 268.81017608194304 44.10744522618594" height="34.975886731534956"
                                    width="213.1584412271571">
                                    <g transform="matrix(1,0,0,1,55.651734854785914,6.0958914892919775)"><svg
                                            viewBox="0 0 213.1584412271571 31.915662247601983"
                                            height="31.915662247601983" width="213.1584412271571">
                                            <g id="textblocktransform"><svg
                                                    viewBox="0 0 213.1584412271571 31.915662247601983"
                                                    height="31.915662247601983" width="213.1584412271571"
                                                    id="textblock">
                                                    <g><svg viewBox="0 0 213.1584412271571 31.915662247601983"
                                                            height="31.915662247601983" width="213.1584412271571">
                                                            <g transform="matrix(1,0,0,1,0,0)"><svg
                                                                    width="213.1584412271571"
                                                                    viewBox="0.8500000238418579 -38.150001525878906 256.7799987792969 38.45000076293945"
                                                                    height="31.915662247601983"
                                                                    data-palette-color="#ffffff">
                                                                    <path
                                                                        d="M16.35 0L10.55 0 0.85-26.75 6-26.75 13.55-4.65 21.25-26.75 26.4-26.75 16.35 0ZM35.1 0.3L35.1 0.3Q32.15 0.3 30.22-1.48 28.3-3.25 28.3-6.4L28.3-6.4 28.3-8.5Q28.3-11.6 30.42-13.58 32.55-15.55 36.85-15.55L36.85-15.55 45.2-15.55 45.2-18.35Q45.2-19.9 44.67-20.98 44.15-22.05 42.75-22.6 41.35-23.15 38.6-23.15L38.6-23.15 30.4-23.15 30.4-26.1Q32.2-26.5 34.62-26.8 37.05-27.1 40.3-27.15L40.3-27.15Q43.6-27.15 45.82-26.33 48.05-25.5 49.15-23.63 50.25-21.75 50.25-18.65L50.25-18.65 50.25 0 46.3 0 45.45-2.95Q45.15-2.75 44.2-2.23 43.25-1.7 41.77-1.1 40.3-0.5 38.57-0.1 36.85 0.3 35.1 0.3ZM37.4-3.35L37.4-3.35Q38.15-3.3 39.17-3.5 40.2-3.7 41.22-3.98 42.25-4.25 43.12-4.55 44-4.85 44.57-5.08 45.15-5.3 45.2-5.35L45.2-5.35 45.2-13.05 38.2-12.75Q35.6-12.6 34.47-11.45 33.35-10.3 33.35-8.45L33.35-8.45 33.35-7.25Q33.35-5.8 33.95-4.93 34.55-4.05 35.47-3.7 36.4-3.35 37.4-3.35ZM70.65 0.3L70.65 0.3Q68.8 0.3 67.22-0.15 65.65-0.6 64.37-1.28 63.09-1.95 62.05-2.65L62.05-2.65 61.15 0 57.05 0 57.05-38.15 62.05-38.15 62.05-24.5Q63.9-25.5 66.17-26.3 68.45-27.1 70.4-27.1L70.4-27.1Q73.7-27.1 75.8-25.73 77.9-24.35 78.92-21.3 79.95-18.25 79.95-13.15L79.95-13.15Q79.95-8.9 79-5.88 78.05-2.85 76-1.28 73.95 0.3 70.65 0.3ZM68.9-3.85L68.9-3.85Q70.84-3.85 72.17-4.83 73.5-5.8 74.22-7.93 74.95-10.05 74.95-13.4L74.95-13.4Q74.95-17.5 74.15-19.55 73.34-21.6 72-22.3 70.65-23 68.9-23L68.9-23Q66.9-23 65.27-22.43 63.65-21.85 62.05-21L62.05-21 62.05-5.75Q63.4-5.05 65.09-4.45 66.8-3.85 68.9-3.85ZM91.39 0.3L91.39 0.3Q88.44 0.3 86.52-1.48 84.59-3.25 84.59-6.4L84.59-6.4 84.59-8.5Q84.59-11.6 86.72-13.58 88.84-15.55 93.14-15.55L93.14-15.55 101.49-15.55 101.49-18.35Q101.49-19.9 100.97-20.98 100.44-22.05 99.04-22.6 97.64-23.15 94.89-23.15L94.89-23.15 86.69-23.15 86.69-26.1Q88.49-26.5 90.92-26.8 93.34-27.1 96.59-27.15L96.59-27.15Q99.89-27.15 102.12-26.33 104.34-25.5 105.44-23.63 106.54-21.75 106.54-18.65L106.54-18.65 106.54 0 102.59 0 101.74-2.95Q101.44-2.75 100.49-2.23 99.54-1.7 98.07-1.1 96.59-0.5 94.87-0.1 93.14 0.3 91.39 0.3ZM93.69-3.35L93.69-3.35Q94.44-3.3 95.47-3.5 96.49-3.7 97.52-3.98 98.54-4.25 99.42-4.55 100.29-4.85 100.87-5.08 101.44-5.3 101.49-5.35L101.49-5.35 101.49-13.05 94.49-12.75Q91.89-12.6 90.77-11.45 89.64-10.3 89.64-8.45L89.64-8.45 89.64-7.25Q89.64-5.8 90.24-4.93 90.84-4.05 91.77-3.7 92.69-3.35 93.69-3.35ZM118.34 0L113.34 0 113.34-26.75 117.34-26.75 118.34-23.85Q120.14-25.15 122.62-26.18 125.09-27.2 127.74-27.2L127.74-27.2Q130.74-27.2 132.56-25.93 134.39-24.65 135.19-22.55 135.99-20.45 135.99-18L135.99-18 135.99 0 130.99 0 130.99-17.4Q130.99-19 130.37-20.18 129.74-21.35 128.64-22 127.54-22.65 125.94-22.65L125.94-22.65Q124.44-22.65 123.17-22.35 121.89-22.05 120.74-21.53 119.59-21 118.34-20.25L118.34-20.25 118.34 0ZM147.84 0L142.84 0 142.84-38.15 147.84-38.15 147.84-16.5 151.49-16.5 158.94-26.75 164.14-26.75 155.19-14.25 164.79 0 159.54 0 151.34-12 147.84-12 147.84 0ZM172.09 0.05L169.24 0.05Q168.39 0.05 168.39-0.8L168.39-0.8 168.39-5.15Q168.39-6.05 169.24-6.05L169.24-6.05 172.09-6.05Q172.99-6.05 172.99-5.15L172.99-5.15 172.99-0.8Q172.99-0.35 172.74-0.15 172.49 0.05 172.09 0.05L172.09 0.05ZM188.08 0.3L188.08 0.3Q184.83 0.3 182.71-1.1 180.58-2.5 179.53-5.48 178.48-8.45 178.48-13.15L178.48-13.15Q178.48-18.1 179.46-21.18 180.43-24.25 182.63-25.68 184.83-27.1 188.58-27.1L188.58-27.1Q190.68-27.1 192.76-26.65 194.83-26.2 196.38-25.65L196.38-25.65 196.38-38.15 201.38-38.15 201.38 0 197.28 0 196.38-2.65Q195.58-1.95 194.18-1.28 192.78-0.6 191.18-0.15 189.58 0.3 188.08 0.3ZM189.68-3.8L189.68-3.8Q191.73-3.8 193.41-4.45 195.08-5.1 196.38-5.8L196.38-5.8 196.38-22.05Q194.83-22.5 193.36-22.88 191.88-23.25 190.08-23.25L190.08-23.25Q187.73-23.25 186.28-22.4 184.83-21.55 184.18-19.4 183.53-17.25 183.53-13.4L183.53-13.4Q183.53-9.85 184.13-7.73 184.73-5.6 186.11-4.7 187.48-3.8 189.68-3.8ZM218.78 0.3L218.78 0.3Q214.53 0.3 212.01-0.95 209.48-2.2 208.41-5.18 207.33-8.15 207.33-13.4L207.33-13.4Q207.33-18.75 208.41-21.73 209.48-24.7 211.98-25.9 214.48-27.1 218.73-27.1L218.73-27.1Q222.43-27.1 224.71-26.33 226.98-25.55 228.06-23.58 229.13-21.6 229.13-18.1L229.13-18.1Q229.13-15.65 228.16-14.2 227.18-12.75 225.41-12.1 223.63-11.45 221.18-11.45L221.18-11.45 212.33-11.45Q212.38-8.55 213.01-6.83 213.63-5.1 215.26-4.33 216.88-3.55 220.03-3.55L220.03-3.55 228.38-3.55 228.38-0.55Q226.23-0.25 223.98 0.03 221.73 0.3 218.78 0.3ZM212.28-14.6L212.28-14.6 220.73-14.6Q222.73-14.6 223.68-15.35 224.63-16.1 224.63-18.1L224.63-18.1Q224.63-20.1 224.06-21.25 223.48-22.4 222.18-22.9 220.88-23.4 218.73-23.4L218.73-23.4Q216.28-23.4 214.86-22.65 213.43-21.9 212.86-20 212.28-18.1 212.28-14.6ZM247.58 0L241.78 0 232.08-26.75 237.23-26.75 244.78-4.65 252.48-26.75 257.63-26.75 247.58 0Z"
                                                                        opacity="1" transform="matrix(1,0,0,1,0,0)"
                                                                        fill="#ffffff" class="undefined-text-0"
                                                                        data-fill-palette-color="quaternary"
                                                                        id="text-0"></path>
                                                                </svg></g>
                                                        </svg></g>
                                                </svg></g>
                                        </svg></g>
                                    <g><svg viewBox="0 0 48.11721297402103 44.10744522618594" height="44.10744522618594"
                                            width="48.11721297402103">
                                            <g><svg xmlns="http://www.w3.org/2000/svg"
                                                    xmlns:xlink="http://www.w3.org/1999/xlink" version="1.1" x="0" y="0"
                                                    viewBox="0 1 24 22" style="enable-background:new 0 0 24 24;"
                                                    xml:space="preserve" height="44.10744522618594"
                                                    width="48.11721297402103" class="icon-icon-0"
                                                    data-fill-palette-color="quaternary" id="icon-0">
                                                    <g fill="#ffffff" data-fill-palette-color="quaternary">
                                                        <path
                                                            d="M21.5 1h-19C1.122 1 0 2.122 0 3.5v17C0 21.878 1.122 23 2.5 23h19c1.378 0 2.5-1.122 2.5-2.5v-17C24 2.122 22.878 1 21.5 1zM2.5 2h19C22.327 2 23 2.673 23 3.5V5H1V3.5C1 2.673 1.673 2 2.5 2zM21.5 22h-19C1.673 22 1 21.327 1 20.5V6h22v14.5C23 21.327 22.327 22 21.5 22z"
                                                            fill="#ffffff" data-fill-palette-color="quaternary"></path>
                                                        <circle cx="2.5" cy="3.5" r="0.5" fill="#ffffff"
                                                            data-fill-palette-color="quaternary"></circle>
                                                        <circle cx="4.5" cy="3.5" r="0.5" fill="#ffffff"
                                                            data-fill-palette-color="quaternary"></circle>
                                                        <circle cx="6.5" cy="3.5" r="0.5" fill="#ffffff"
                                                            data-fill-palette-color="quaternary"></circle>
                                                        <path
                                                            d="M7.853 10.148c-0.195-0.195-0.512-0.195-0.707 0s-0.195 0.512 0 0.707l2.646 2.646-2.646 2.646c-0.195 0.195-0.195 0.512 0 0.707C7.244 16.951 7.372 17 7.5 17s0.256-0.049 0.353-0.145l3-3c0.195-0.195 0.195-0.512 0-0.707L7.853 10.148z"
                                                            fill="#ffffff" data-fill-palette-color="quaternary"></path>
                                                        <path
                                                            d="M17.5 15h-5c-0.276 0-0.5 0.224-0.5 0.5s0.224 0.5 0.5 0.5h5c0.276 0 0.5-0.224 0.5-0.5S17.776 15 17.5 15z"
                                                            fill="#ffffff" data-fill-palette-color="quaternary"></path>
                                                    </g>
                                                </svg></g>
                                        </svg></g>
                                </svg></g>
                        </svg></g>
                </svg></g>
        </svg></g>
    <defs></defs>
</svg>